<svg height="512pt" viewBox="0 -20 512.00007 512" width="512pt" xmlns="http://www.w3.org/2000/svg">
<path d="m140 408.003906v-99.8125l-31.886719-38.402344c-41.34375-49.785156-73.949219-106.21875-96.4375-166.902343-4.492187-12.125.277344-25.726563 11.359375-32.390625 13.480469-8.105469 31.007813-2.964844 37.96875 11.140625l9.328125 18.886719c18.523438 37.511718 43.292969 71.597656 73.246094 100.804687 9.582031 9.339844 22.429687 14.582031 35.8125 14.609375l39.726563.082031h36.980468-.191406 36.980469l39.726562-.082031c13.382813-.027344 26.230469-5.269531 35.8125-14.609375 29.953125-29.207031 54.722657-63.292969 73.246094-100.804687l9.328125-18.886719c6.964844-14.105469 24.488281-19.246094 37.96875-11.140625 11.082031 6.664062 15.851562 20.265625 11.359375 32.390625-22.488281 60.683593-55.09375 117.117187-96.4375 166.902343l-31.886719 38.402344v99.8125zm0 0" fill="#95e2ff"/>
<path d="m300.644531 216.128906c0 24.585938-19.933593 44.519532-44.519531 44.519532s-44.515625-19.933594-44.515625-44.519532zm0 0" fill="#fff"/>
<path d="m348.972656 10h-110.910156c-25.371094 0-45.9375 20.566406-45.9375 45.9375v32.285156h107.917969c27.023437 0 48.929687-21.90625 48.929687-48.929687zm0 0" fill="#ffc36e"/>
<path d="m325.566406 88.222656h-133.441406v62.730469c0 35.867187 29.074219 64.941406 64.9375 64.941406h3.566406c35.863282 0 64.9375-29.074219 64.9375-64.941406zm0 0" fill="#fccd9d"/>
<path d="m452.335938 422.003906h36v-104h-192v40zm0 0" fill="#91dc82"/>
<path d="m256 358.003906h192.003906v104h-192.003906zm0 0" fill="#bced89"/>
<path d="m509.703125 106.359375c6.15625-16.613281-.398437-35.300781-15.582031-44.4375-8.816406-5.296875-19.53125-6.675781-29.398438-3.78125-9.867187 2.894531-18.140625 9.84375-22.695312 19.066406l-9.328125 18.886719c-18.066407 36.589844-42.042969 69.585938-71.257813 98.070312-7.765625 7.570313-18.011718 11.75-28.851562 11.773438l-21.15625.042969c14.828125-13.703125 24.136718-33.292969 24.136718-55.027344v-62.730469c0-.621094-.066406-1.222656-.175781-1.816406 14.308594-10.761719 23.578125-27.875 23.578125-47.113281v-29.292969c0-5.523438-4.480468-10-10-10h-110.910156c-30.84375 0-55.9375 25.09375-55.9375 55.9375v95.015625c0 21.742187 9.3125 41.339844 24.148438 55.039063l-26.863282-.054688c-10.839844-.019531-21.085937-4.203125-28.851562-11.769531-29.214844-28.484375-53.191406-61.480469-71.257813-98.070313l-9.328125-18.890625c-4.554687-9.222656-12.828125-16.171875-22.695312-19.066406-9.867188-2.894531-20.582032-1.515625-29.398438 3.785156-15.183594 9.132813-21.738281 27.820313-15.582031 44.433594 22.9375 61.902344 55.953125 119.035156 98.121094 169.820313l29.582031 35.621093v96.203125c0 5.523438 4.476562 10 10 10h36.125c5.523438 0 10-4.476562 10-10 0-5.519531-4.476562-10-10-10h-26.125v-89.8125c0-2.335937-.816406-4.597656-2.308594-6.390625l-31.886718-38.398437c-40.722657-49.042969-72.601563-104.21875-94.75-163.992188-2.820313-7.605468.179687-16.164062 7.132812-20.34375 4.09375-2.464844 8.875-3.078125 13.460938-1.734375 4.585937 1.347657 8.273437 4.445313 10.390624 8.730469l9.328126 18.890625c19.074218 38.625 44.386718 73.460937 75.230468 103.53125 11.507813 11.222656 26.699219 17.421875 42.769532 17.453125l23.148437.046875c4.65625 25.371094 26.914063 44.664063 53.609375 44.664063s48.953125-19.292969 53.609375-44.664063l22.894531-.046875c16.074219-.03125 31.265625-6.230469 42.773438-17.453125 30.84375-30.070313 56.152344-64.90625 75.230468-103.53125l9.324219-18.890625c2.117188-4.285156 5.808594-7.386719 10.394531-8.730469 4.585938-1.34375 9.363282-.726562 13.457032 1.730469 6.953125 4.183594 9.957031 12.738281 7.136718 20.347656-22.148437 59.773438-54.027343 114.949219-94.753906 163.992188l-31.886718 38.398437c-1.449219 1.746094-2.253907 3.933594-2.296876 6.203125h-65.671874c-5.523438 0-10.003907 4.476563-10.003907 10v30h-30.332031c-5.523438 0-10 4.476563-10 10v104c0 5.523438 4.476562 10 10 10h192.003906c5.519532 0 10-4.476562 10-10v-30h30.332032c5.523437 0 10-4.476562 10-10v-104c0-5.523437-4.476563-10-10-10h-103.183594l26.429687-31.824218c42.167969-50.785157 75.183594-107.917969 98.121094-169.820313zm-307.578125-50.421875c0-19.816406 16.121094-35.9375 35.9375-35.9375h100.910156v19.292969c0 21.46875-17.464844 38.933593-38.933594 38.933593h-97.917968v-22.289062zm0 95.015625v-52.730469h113.441406v52.730469c0 30.296875-24.644531 54.941406-54.9375 54.941406h-3.5625c-30.296875 0-54.941406-24.644531-54.941406-54.941406zm54 99.695313c-15.59375 0-28.804688-10.402344-33.066406-24.628907h66.132812c-4.261718 14.226563-17.46875 24.628907-33.066406 24.628907zm9.875 117.355468h76.839844c-.441406 1.011719-.714844 2.109375-.800782 3.261719-9.945312 3.742187-16.992187 12.898437-16.992187 23.585937 0 8.679688 4.652344 16.355469 11.730469 20.933594-.5625-.097656-1.140625-.160156-1.730469-.160156-5.523437 0-10 4.480469-10 10 0 10.703125 7.070313 19.871094 17.035156 23.601562.121094.976563.378907 1.910157.757813 2.777344h-76.839844zm86 52.234375c3.773438 0 6.957031 2.46875 6.957031 5.390625 0 2.917969-3.183593 5.386719-6.957031 5.386719-3.769531 0-6.953125-2.46875-6.953125-5.386719 0-2.847656-1.195313-5.410156-3.105469-7.230468 3.109375 1.179687 6.503906 1.839843 10.058594 1.839843zm0-20c-3.769531 0-6.953125-2.46875-6.953125-5.386719 0-2.921874 3.183594-5.390624 6.953125-5.390624 3.773438 0 6.957031 2.46875 6.957031 5.390624 0 2.84375 1.195313 5.40625 3.101563 7.226563-3.109375-1.183594-6.503906-1.839844-10.058594-1.839844zm86.003906 51.765625h-76.839844c.378907-.867187.636719-1.800781.753907-2.777344 9.96875-3.730468 17.039062-12.898437 17.039062-23.597656 0-8.683594-4.652343-16.355468-11.730469-20.9375.5625.097656 1.140626.160156 1.730469.160156 5.523438 0 10-4.480468 10-10 0-10.6875-7.046875-19.84375-16.992187-23.585937-.085938-1.152344-.359375-2.25-.800782-3.261719h76.839844zm40.332032-40h-20.332032v-54c0-5.523437-4.480468-10-10-10h-141.667968v-20h172zm0 0"/>
<path d="m216.128906 398.003906c-2.640625 0-5.207031 1.070313-7.070312 2.929688-1.867188 1.859375-2.929688 4.441406-2.929688 7.070312 0 2.632813 1.0625 5.210938 2.929688 7.070313 1.863281 1.859375 4.441406 2.929687 7.070312 2.929687 2.632813 0 5.210938-1.070312 7.070313-2.929687s2.929687-4.4375 2.929687-7.070313c0-2.628906-1.070312-5.210937-2.929687-7.070312s-4.4375-2.929688-7.070313-2.929688zm0 0"/>
<path d="m241.789062 172.535156c5.003907 5.003906 11.574219 7.503906 18.148438 7.503906 6.570312 0 13.144531-2.5 18.148438-7.503906 3.902343-3.90625 3.902343-10.238281 0-14.144531-3.90625-3.902344-10.238282-3.902344-14.144532 0-2.207031 2.210937-5.800781 2.210937-8.011718 0-3.90625-3.902344-10.238282-3.902344-14.144532 0-3.902344 3.90625-3.902344 10.238281.003906 14.144531zm0 0"/>
<path d="m283.511719 139.871094c2.640625 0 5.210937-1.070313 7.070312-2.929688 1.859375-1.871094 2.929688-4.441406 2.929688-7.070312 0-2.640625-1.070313-5.210938-2.929688-7.078125-1.859375-1.863281-4.433593-2.933594-7.070312-2.933594-2.632813 0-5.199219 1.070313-7.070313 2.933594-1.859375 1.867187-2.929687 4.4375-2.929687 7.078125 0 2.628906 1.070312 5.199218 2.929687 7.070312 1.867188 1.859375 4.4375 2.929688 7.070313 2.929688zm0 0"/>
<path d="m234.179688 139.859375c2.628906 0 5.210937-1.058594 7.070312-2.917969 1.859375-1.871094 2.929688-4.449218 2.929688-7.082031 0-2.628906-1.070313-5.199219-2.929688-7.066406-1.859375-1.863281-4.441406-2.933594-7.070312-2.933594-2.628907 0-5.210938 1.070313-7.070313 2.933594-1.871094 1.867187-2.929687 4.4375-2.929687 7.066406 0 2.632813 1.058593 5.210937 2.929687 7.082031 1.859375 1.859375 4.441406 2.917969 7.070313 2.917969zm0 0"/>
<path d="m214.832031 291.046875c-3.90625-3.902344-10.238281-3.902344-14.144531 0-3.90625 3.90625-3.90625 10.238281 0 14.144531l27.820312 27.820313c1.953126 1.953125 4.511719 2.929687 7.070313 2.929687s5.121094-.976562 7.070313-2.929687c3.90625-3.90625 3.90625-10.238281 0-14.144531zm0 0"/>
<path d="m222.054688 359.007812c0-5.523437-4.476563-10-10-10h-24.421876c-5.519531 0-10 4.476563-10 10 0 5.519532 4.480469 10 10 10h24.421876c5.523437 0 10-4.480468 10-10zm0 0"/></svg>