<?xml version="1.0" encoding="iso-8859-1"?>
<!-- Generator: Adobe Illustrator 19.0.0, SVG Export Plug-In . SVG Version: 6.00 Build 0)  -->
<svg version="1.1" id="Capa_1" xmlns="http://www.w3.org/2000/svg" xmlns:xlink="http://www.w3.org/1999/xlink" x="0px" y="0px"
	 viewBox="0 0 512 512" style="enable-background:new 0 0 512 512;" xml:space="preserve">
<path style="fill:#FFAE33;" d="M408.43,512h-360V0h360V512z"/>
<rect x="228.429" style="fill:#FF9800;" width="180" height="512"/>
<path style="fill:#FF3A00;" d="M148.43,512h-100V0h100V512z"/>
<g>
	<rect x="28.43" y="241" style="fill:#E20004;" width="70" height="30"/>
	<rect x="28.43" y="181" style="fill:#E20004;" width="70" height="30"/>
	<rect x="28.43" y="121" style="fill:#E20004;" width="70" height="30"/>
	<rect x="28.43" y="61" style="fill:#E20004;" width="70" height="30"/>
	<rect x="28.43" y="301" style="fill:#E20004;" width="70" height="30"/>
	<rect x="28.43" y="361" style="fill:#E20004;" width="70" height="30"/>
	<rect x="28.43" y="421" style="fill:#E20004;" width="70" height="30"/>
</g>
<path style="fill:#009AF2;" d="M438.568,484.138c-12.02,0-23.32-4.681-31.819-13.181l-102.53-102.53l63.64-63.64l102.53,102.53
	c8.5,8.499,13.181,19.8,13.181,31.819c0,12.021-4.681,23.321-13.181,31.82C461.888,479.457,450.588,484.138,438.568,484.138z"/>
<path style="fill:#0078EB;" d="M268.862,394.432c-33.389,0-64.779-13.003-88.389-36.612c-48.737-48.736-48.737-128.038,0-176.776
	c48.738-48.736,128.04-48.736,176.776,0c23.609,23.609,36.612,55,36.612,88.389s-13.003,64.779-36.612,88.388
	C333.641,381.429,302.25,394.432,268.862,394.432z"/>
<path style="fill:#003D6B;" d="M357.25,181.043c-34.78-34.78-85.124-44.732-128.819-29.872V387.77
	c12.846,4.377,26.462,6.661,40.432,6.661c33.389,0,64.779-13.003,88.388-36.612c23.609-23.608,36.612-54.999,36.612-88.388
	S380.859,204.652,357.25,181.043z"/>
<path style="fill:#8DF4FF;" d="M268.862,344.432c-20.033,0-38.867-7.802-53.033-21.968c-14.166-14.165-21.967-32.999-21.967-53.032
	s7.801-38.867,21.967-53.033s33-21.967,53.033-21.967c20.033,0,38.867,7.801,53.032,21.967l0,0l0,0
	c14.166,14.166,21.968,33,21.968,53.033s-7.802,38.867-21.968,53.032C307.729,336.63,288.896,344.432,268.862,344.432z"/>
<path style="fill:#00E0FF;" d="M321.894,216.398c-14.165-14.166-32.999-21.967-53.032-21.967c-14.558,0-28.472,4.138-40.432,11.825
	v126.349c11.96,7.688,25.874,11.826,40.432,11.826c20.033,0,38.867-7.802,53.032-21.968c14.166-14.165,21.968-32.999,21.968-53.032
	S336.06,230.564,321.894,216.398z"/>
<g>
</g>
<g>
</g>
<g>
</g>
<g>
</g>
<g>
</g>
<g>
</g>
<g>
</g>
<g>
</g>
<g>
</g>
<g>
</g>
<g>
</g>
<g>
</g>
<g>
</g>
<g>
</g>
<g>
</g>
</svg>
